<?xml version="1.0" encoding="utf-8"?>
<!-- Generator: Adobe Illustrator 16.0.0, SVG Export Plug-In . SVG Version: 6.00 Build 0)  -->
<!DOCTYPE svg PUBLIC "-//W3C//DTD SVG 1.1//EN" "http://www.w3.org/Graphics/SVG/1.1/DTD/svg11.dtd">
<svg version="1.1" id="Layer1" xmlns="http://www.w3.org/2000/svg" xmlns:xlink="http://www.w3.org/1999/xlink" x="0px" y="0px"
	 width="128px" height="128px" viewBox="0 0 128 128" enable-background="new 0 0 128 128" xml:space="preserve">
<path fill="#FFFFFF" d="M64,12c28.673,0,52,23.327,52,52s-23.327,52-52,52c-28.673,0-52-23.327-52-52S35.327,12,64,12 M64,0
	C28.653,0,0,28.654,0,64c0,35.347,28.654,64,64,64c35.346,0,64-28.653,64-64C128,28.654,99.346,0,64,0L64,0z"/>
<path fill="#FFFFFF" d="M31.114,45.7v23.425c1.824,0.479,4.127,0.672,6.912,0.672c10.079,0,16.223-4.896,16.223-13.824
	c0-3.897-1.27-6.865-3.513-8.952C44.696,47.002,37.586,46.416,31.114,45.7z"/>
<path fill="#FFFFFF" d="M91.979,68.356h0.191c1.824-4.224,4.031-8.447,6.527-13.343l6.233-11.952
	c-2.299-4.471-5.298-8.526-8.868-12.002c-6.141,1.965-12.68,5.036-18.695,7.938l8.18,16.016
	C88.043,59.909,89.963,63.845,91.979,68.356z"/>
<path fill="#FFFFFF" d="M95.818,74.309v22.864C104.549,88.795,110,77.025,110,64c0-3.964-0.509-7.811-1.457-11.481L95.818,74.309z"
	/>
<path fill="#FFFFFF" d="M87.371,74.404L69.897,42.575c-3.008,1.403-5.739,2.588-8.01,3.316c-0.469,0.15-0.983,0.283-1.537,0.401
	c1.444,2.611,2.25,5.751,2.25,9.297c0,5.855-1.729,10.463-4.992,13.823c-4.415,4.703-11.615,7.104-19.774,7.104
	c-2.496,0-4.799-0.096-6.719-0.576V96.12C39.472,104.675,51.123,110,64,110c9.682,0,18.67-3.014,26.089-8.143h-2.718V74.404z"/>
<path fill="#FFFFFF" d="M22.3,44.611C19.547,50.507,18,57.075,18,64c0,7.306,1.72,14.214,4.763,20.354V44.673
	C22.609,44.653,22.451,44.632,22.3,44.611z"/>
</svg>
